<?xml version="1.0" encoding="UTF-8" standalone="no" ?>
<!DOCTYPE svg PUBLIC "-//W3C//DTD SVG 1.1//EN" "http://www.w3.org/Graphics/SVG/1.1/DTD/svg11.dtd">
<svg xmlns="http://www.w3.org/2000/svg" xmlns:xlink="http://www.w3.org/1999/xlink" version="1.1" width="500" height="500" viewBox="0 0 500 500" xml:space="preserve">
<desc>Created with Fabric.js 4.6.0</desc>
<defs>
</defs>
<g transform="matrix(1 0 0 1 271.17 179.03)" id="uRA31-Rx7CbAljbTlKMAT"  >
<path style="stroke: none; stroke-width: 1; stroke-dasharray: none; stroke-linecap: butt; stroke-dashoffset: 0; stroke-linejoin: miter; stroke-miterlimit: 4; fill: rgb(53,49,49); fill-rule: nonzero; opacity: 1; visibility: hidden;" vector-effect="non-scaling-stroke"  transform=" translate(-295.83, -143.23)" d="M 318.484 93.344 C 280.123 79.64099999999999 239.46499999999997 95.29199999999999 227.67499999999998 128.302 C 225.41799999999998 134.765 221.60399999999998 143.696 221.84699999999998 150.66299999999998 C 222.29 146.969 225.90699999999998 141.26899999999998 227.105 137.772 C 238.433 106.05599999999998 277.49899999999997 91.01499999999999 314.358 104.18199999999999 C 351.217 117.34899999999999 371.909 153.73399999999998 360.581 185.45 C 358.976 189.765 359.214 194.277 356.528 198.071 C 362.08700000000005 192.351 363.90700000000004 185.244 366.589 177.922 C 378.383 144.915 356.844 107.047 318.484 93.344 L 318.484 93.344 z" stroke-linecap="round" />
</g>
<g transform="matrix(2.01 0.72 -0.7 1.95 250 250)" id="yx9NWPqL3bWiPyWWnYfrP"  >
</g>
<g transform="matrix(1 0 0 1 212.41 318.14)" id="lG0DVLWdINxNjjZel3enc"  >
<path style="stroke: none; stroke-width: 1; stroke-dasharray: none; stroke-linecap: butt; stroke-dashoffset: 0; stroke-linejoin: miter; stroke-miterlimit: 4; fill: rgb(42,237,118); fill-rule: nonzero; opacity: 1;" vector-effect="non-scaling-stroke"  transform=" translate(-237.06, -282.34)" d="M 256.144 135.068 L 190.156 111.39700000000002 L 182.91 131.71 L 172.745 134.262 L 69.589 355.843 L 342.342 453.273 L 403.799 216.80400000000003 L 397.57399999999996 208.16100000000003 L 404.53499999999997 188.05900000000003 L 256.144 135.068 z" stroke-linecap="round" />
</g>
<g transform="matrix(1 0 0 1 325.65 272.69)" id="0ZvT6GEwkPCdinA7Tn7LE"  >
<path style="stroke: none; stroke-width: 1; stroke-dasharray: none; stroke-linecap: butt; stroke-dashoffset: 0; stroke-linejoin: miter; stroke-miterlimit: 4; fill: rgb(16,51,62); fill-rule: nonzero; opacity: 1;" vector-effect="non-scaling-stroke"  transform=" translate(-6.1, -6.27)" d="M 0 6.269 C 0 2.80673 2.73285 0 6.104 0 C 9.47515 0 12.208 2.80673 12.208 6.269 C 12.208 9.73127 9.47515 12.538 6.104 12.538 C 2.73285 12.538 0 9.73127 0 6.269 z" stroke-linecap="round" />
</g>
<g transform="matrix(1 0 0 1 263.89 200.05)" id="WBbeWuunFNtbouqQNdlTK"  >
<path style="stroke: none; stroke-width: 1; stroke-dasharray: none; stroke-linecap: butt; stroke-dashoffset: 0; stroke-linejoin: miter; stroke-miterlimit: 4; fill: rgb(13,53,19); fill-rule: nonzero; opacity: 1;" vector-effect="non-scaling-stroke"  transform=" translate(-288.55, -164.24)" d="M 190.292 111.638 L 200.064 125.388 L 172.65099999999998 134.308 C 245.73199999999997 160.16 403.705 216.85 403.705 216.85 L 387.984 192.434 L 404.441 188.105 L 391.462 183.469 L 190.292 111.638 z" stroke-linecap="round" />
</g>
<g transform="matrix(1 0 0 1 179.85 220.62)" id="nRwhdQNQCrVprKFqnWLGa"  >
<path style="stroke: none; stroke-width: 1; stroke-dasharray: none; stroke-linecap: butt; stroke-dashoffset: 0; stroke-linejoin: miter; stroke-miterlimit: 4; fill: rgb(16,51,62); fill-rule: nonzero; opacity: 1;" vector-effect="non-scaling-stroke"  transform=" translate(-6.1, -6.27)" d="M 0 6.269 C 0 2.80673 2.73241 0 6.103 0 C 9.47359 0 12.206 2.80673 12.206 6.269 C 12.206 9.73127 9.47359 12.538 6.103 12.538 C 2.73241 12.538 0 9.73127 0 6.269 z" stroke-linecap="round" />
</g>
<g transform="matrix(1 0 0 1 259.71 210.26)" id="WlY5iHsVdOF605l4BM9ml"  >
<path style="stroke: none; stroke-width: 1; stroke-dasharray: none; stroke-linecap: butt; stroke-dashoffset: 0; stroke-linejoin: miter; stroke-miterlimit: 4; fill: rgb(40,11,11); fill-rule: nonzero; opacity: 1;" vector-effect="non-scaling-stroke"  transform=" translate(-284.37, -174.46)" d="M 311.918 114.602 C 270.516 99.81200000000001 225.28300000000002 120.49900000000001 210.887 160.80700000000002 C 208.124 168.698 203.546 179.63100000000003 203.498 188.01500000000001 C 204.14999999999998 183.543 208.368 176.513 209.83599999999998 172.24400000000003 C 223.66799999999998 133.51600000000002 267.132 113.63700000000003 306.91499999999996 127.84700000000004 C 346.69399999999996 142.05700000000004 367.72399999999993 184.97300000000004 353.888 223.70100000000002 C 351.93899999999996 228.973 351.995 234.39800000000002 348.88399999999996 239.091 C 355.22799999999995 231.948 357.542 223.303 360.80999999999995 214.359 C 375.211 174.055 353.32 129.392 311.918 114.602 L 311.918 114.602 z" stroke-linecap="round" />
</g>
<g transform="matrix(1 0 0 1 168.06 379.14)" id="QAwnTg2bUnZDPVeYR58md"  >
<path style="stroke: none; stroke-width: 1; stroke-dasharray: none; stroke-linecap: butt; stroke-dashoffset: 0; stroke-linejoin: miter; stroke-miterlimit: 4; fill: rgb(71,71,71); fill-rule: nonzero; opacity: 1;" vector-effect="non-scaling-stroke"  transform=" translate(-192.71, -343.33)" d="M 197.703 340.84 L 195.208 340.84 L 195.208 338.34 C 195.208 336.965 194.089 335.847 192.711 335.847 C 191.33300000000003 335.847 190.216 336.965 190.216 338.34 L 190.216 340.84 L 187.72 340.84 C 186.342 340.84 185.225 341.95599999999996 185.225 343.337 C 185.225 344.71 186.34199999999998 345.83 187.72 345.83 L 190.216 345.83 L 190.216 348.32599999999996 C 190.216 349.70699999999994 191.333 350.823 192.711 350.823 C 194.089 350.823 195.20800000000003 349.707 195.20800000000003 348.32599999999996 L 195.20800000000003 345.83 L 197.70300000000003 345.83 C 199.08200000000002 345.83 200.19900000000004 344.71 200.19900000000004 343.337 C 200.199 341.956 199.082 340.84 197.703 340.84 z" stroke-linecap="round" />
</g>
<g transform="matrix(1 0 0 1 190.94 375.39)" id="ywZfChY-PDN_AQFuWZJnP"  >
<path style="stroke: none; stroke-width: 1; stroke-dasharray: none; stroke-linecap: butt; stroke-dashoffset: 0; stroke-linejoin: miter; stroke-miterlimit: 4; fill: rgb(255,67,67); fill-rule: nonzero; opacity: 1;" vector-effect="non-scaling-stroke"  transform=" translate(-2.5, -2.5)" d="M 0 2.496 C 0 1.1175 1.1175 0 2.496 0 C 3.8745000000000003 0 4.992 1.1175 4.992 2.496 C 4.992 3.8745000000000003 3.8745000000000003 4.992 2.496 4.992 C 1.1175 4.992 0 3.8745000000000003 0 2.496 z" stroke-linecap="round" />
</g>
<g transform="matrix(1 0 0 1 185.94 382.88)" id="REeV8aprc-fhBocsnub0e"  >
<path style="stroke: none; stroke-width: 1; stroke-dasharray: none; stroke-linecap: butt; stroke-dashoffset: 0; stroke-linejoin: miter; stroke-miterlimit: 4; fill: rgb(49,123,255); fill-rule: nonzero; opacity: 1;" vector-effect="non-scaling-stroke"  transform=" translate(-210.6, -347.08)" d="M 210.601 344.582 C 211.978 344.582 213.093 345.702 213.093 347.077 C 213.093 348.455 211.97799999999998 349.574 210.601 349.574 C 209.219 349.574 208.102 348.455 208.102 347.077 C 208.102 345.702 209.219 344.582 210.601 344.582 z" stroke-linecap="round" />
</g>
<g transform="matrix(1 0 0 1 169.09 364.55)" id="MxwlJn4HApKLXgoBwQQ8m"  >
<path style="stroke: rgb(4,1,5); stroke-width: 6; stroke-dasharray: none; stroke-linecap: butt; stroke-dashoffset: 0; stroke-linejoin: miter; stroke-miterlimit: 10; fill: none; fill-rule: nonzero; opacity: 1;" vector-effect="non-scaling-stroke"  transform=" translate(-193.75, -328.75)" d="M 193.75 328.75" stroke-linecap="round" />
</g>
<g transform="matrix(1 0 0 1 210.7 358.91)" id="0vHq_0zLbofk1OcNkqXqE"  >
<path style="stroke: rgb(4,1,5); stroke-width: 6; stroke-dasharray: none; stroke-linecap: butt; stroke-dashoffset: 0; stroke-linejoin: miter; stroke-miterlimit: 10; fill: none; fill-rule: nonzero; opacity: 1;" vector-effect="non-scaling-stroke"  transform=" translate(-235.36, -323.11)" d="M 235.359 323.106" stroke-linecap="round" />
</g>
<g transform="matrix(1 0 0 1 176.04 364.37)" id="ln7DckK-f3iUdrs4whiqb"  >
<path style="stroke: rgb(0,0,0); stroke-width: 7; stroke-dasharray: none; stroke-linecap: butt; stroke-dashoffset: 0; stroke-linejoin: miter; stroke-miterlimit: 10; fill: none; fill-rule: nonzero; opacity: 1;" vector-effect="non-scaling-stroke"  transform=" translate(-200.69, -328.57)" d="M 232.285 326.032 C 232.368 326.864 232.4 327.715 232.4 328.567 C 232.4 346.08500000000004 218.21 360.275 200.691 360.275 C 183.187 360.275 168.985 346.085 168.985 328.567 C 168.985 311.059 183.187 296.85900000000004 200.691 296.85900000000004 C 208.373 296.85900000000004 215.413 299.593 220.892 304.136" stroke-linecap="round" />
</g>
<g transform="matrix(1 0 0 1 196.13 339.71)" id="eLRsUBeHntG2DMdcDUVdf"  >
<path style="stroke: none; stroke-width: 1; stroke-dasharray: none; stroke-linecap: butt; stroke-dashoffset: 0; stroke-linejoin: miter; stroke-miterlimit: 4; fill: rgb(104,104,104); fill-rule: nonzero; opacity: 1;" vector-effect="non-scaling-stroke"  transform=" translate(-220.78, -303.91)" d="M 229.065 295.476 L 221.272 314.295 C 220.45499999999998 314.137 219.66899999999998 313.906 218.94199999999998 313.607 C 213.61999999999998 311.399 211.08999999999997 305.293 213.295 299.968 C 215.5 294.642 221.60799999999998 292.111 226.932 294.319 C 227.656 294.617 228.378 295.009 229.065 295.476 z" stroke-linecap="round" />
</g>
<g transform="matrix(1 0 0 1 206.25 338.23)" id="EA4qatDVQLAr_1fuyVJBr"  >
<path style="stroke: none; stroke-width: 1; stroke-dasharray: none; stroke-linecap: butt; stroke-dashoffset: 0; stroke-linejoin: miter; stroke-miterlimit: 4; fill: rgb(0,0,0); fill-rule: nonzero; opacity: 1;" vector-effect="non-scaling-stroke"  transform=" translate(-230.91, -302.43)" d="M 234.48 305.568 L 226.16299999999998 302.125 L 227.33599999999998 299.285 L 235.65699999999998 302.73400000000004 z" stroke-linecap="round" />
</g>
<g transform="matrix(0.93 0.36 -0.36 0.93 202.68 346.87)" id="BSgGSJeYE64t3fmVLgxeb"  >
<path style="stroke: none; stroke-width: 1; stroke-dasharray: none; stroke-linecap: butt; stroke-dashoffset: 0; stroke-linejoin: miter; stroke-miterlimit: 4; fill: rgb(0,0,0); fill-rule: nonzero; opacity: 1;" vector-effect="non-scaling-stroke"  transform=" translate(-4.5, -1.53)" d="M 0 3.07 L 0 0 L 9.005 0 L 9.005 3.07 z" stroke-linecap="round" />
</g>
<g transform="matrix(1 0 0 1 226.66 380.6)" id="i2i70-FrTMbigpKajDRGQ"  >
<path style="stroke: none; stroke-width: 1; stroke-dasharray: none; stroke-linecap: butt; stroke-dashoffset: 0; stroke-linejoin: miter; stroke-miterlimit: 4; fill: rgb(0,0,0); fill-rule: nonzero; opacity: 1;" vector-effect="non-scaling-stroke"  transform=" translate(-251.31, -344.8)" d="M 257.726 354.508 L 244.896 354.508 L 243.046 358.628 L 238.439 358.628 L 251.185 330.967 L 251.437 330.967 L 264.183 358.628 L 259.57599999999996 358.628 L 257.726 354.508 z M 256.078 350.859 L 251.31899999999996 340.265 L 246.54399999999995 350.859 L 256.078 350.859 z" stroke-linecap="round" />
</g>
<g transform="matrix(1 0 0 1 253.39 380.88)" id="kBAJ1kQAOhWgRLFI2GzKh"  >
<path style="stroke: none; stroke-width: 1; stroke-dasharray: none; stroke-linecap: butt; stroke-dashoffset: 0; stroke-linejoin: miter; stroke-miterlimit: 4; fill: rgb(0,0,0); fill-rule: nonzero; opacity: 1;" vector-effect="non-scaling-stroke"  transform=" translate(-278.05, -345.07)" d="M 288.891 345.108 C 288.891 353.431 283.52700000000004 358.628 274.91700000000003 358.628 L 267.199 358.628 L 267.199 331.522 L 274.91700000000003 331.522 C 283.526 331.505 288.891 336.718 288.891 345.108 z M 284.586 345.092 C 284.586 339.341 280.854 335.74199999999996 274.90000000000003 335.74199999999996 L 271.43600000000004 335.74199999999996 L 271.43600000000004 354.39 L 274.951 354.39 C 280.87 354.391 284.586 350.809 284.586 345.092 z" stroke-linecap="round" />
</g>
<g transform="matrix(1 0 0 1 280.37 380.88)" id="MfK-PJLfOoZqCDPQjdYPi"  >
<path style="stroke: none; stroke-width: 1; stroke-dasharray: none; stroke-linecap: butt; stroke-dashoffset: 0; stroke-linejoin: miter; stroke-miterlimit: 4; fill: rgb(0,0,0); fill-rule: nonzero; opacity: 1;" vector-effect="non-scaling-stroke"  transform=" translate(-305.02, -345.07)" d="M 318.542 345.949 C 318.542 354.004 312.69 359.082 305.645 359.082 C 297.758 359.082 291.503 352.793 291.503 345.108 C 291.503 337.407 297.792 331.067 305.493 331.067 C 308.906 331.085 312.807 332.732 315.363 335.22 L 312.993 338.75100000000003 C 310.87399999999997 336.66600000000005 308.015 335.355 305.442 335.355 C 300.499 335.355 295.824 339.492 295.824 345.108 C 295.824 350.421 300.045 354.794 305.829 354.794 C 310.487 354.794 313.985 351.952 313.985 347.815 L 313.985 347.731 L 305.593 347.731 L 305.593 343.83 L 318.423 343.83 C 318.491 344.453 318.542 345.192 318.542 345.949 z" stroke-linecap="round" />
</g>
<g transform="matrix(1 0 0 1 305.88 380.88)" id="SXdkY0d2oIp1jIaQYu8Xr"  >
<path style="stroke: none; stroke-width: 1; stroke-dasharray: none; stroke-linecap: butt; stroke-dashoffset: 0; stroke-linejoin: miter; stroke-miterlimit: 4; fill: rgb(0,0,0); fill-rule: nonzero; opacity: 1;" vector-effect="non-scaling-stroke"  transform=" translate(-330.54, -345.07)" d="M 326.722 335.709 L 326.722 342.653 L 336.97999999999996 342.653 L 336.97999999999996 346.89000000000004 L 326.722 346.89000000000004 L 326.722 354.39000000000004 L 338.611 354.39000000000004 L 338.611 358.62700000000007 L 322.46799999999996 358.62700000000007 L 322.46799999999996 331.5210000000001 L 338.611 331.5210000000001 L 338.611 335.70900000000006 L 326.722 335.70900000000006 z" stroke-linecap="round" />
</g>
<g transform="matrix(1 0 0 1 325.97 380.88)" id="d24eyWEECffBrAqDfcqvY"  >
<path style="stroke: none; stroke-width: 1; stroke-dasharray: none; stroke-linecap: butt; stroke-dashoffset: 0; stroke-linejoin: miter; stroke-miterlimit: 4; fill: rgb(0,0,0); fill-rule: nonzero; opacity: 1;" vector-effect="non-scaling-stroke"  transform=" translate(-350.62, -345.07)" d="M 360.021 335.742 L 352.75600000000003 335.742 L 352.75600000000003 358.62800000000004 L 348.485 358.62800000000004 L 348.485 335.742 L 341.22 335.742 L 341.22 331.521 L 360.02000000000004 331.521 L 360.02000000000004 335.742 z" stroke-linecap="round" />
</g>
<g transform="matrix(1 0 0 1 225.3 422.21)" id="JN-UmxL5425M1FFPiHKL1"  >
<path style="stroke: none; stroke-width: 1; stroke-dasharray: none; stroke-linecap: butt; stroke-dashoffset: 0; stroke-linejoin: miter; stroke-miterlimit: 4; fill: rgb(0,0,0); fill-rule: nonzero; opacity: 1;" vector-effect="non-scaling-stroke"  transform=" translate(-249.96, -386.41)" d="M 240.658 372.856 L 249.72099999999998 372.856 C 254.96699999999998 372.856 259.255 376.876 259.255 381.802 C 259.255 386.62800000000004 254.96699999999998 390.56300000000005 249.721 390.56300000000005 L 244.911 390.56300000000005 L 244.911 399.96200000000005 L 240.657 399.96200000000005 L 240.657 372.856 z M 255.001 381.769 C 255.001 379.18 252.63 377.07800000000003 249.721 377.07800000000003 L 244.911 377.07800000000003 L 244.911 386.34400000000005 L 249.721 386.36100000000005 C 252.63 386.376 255.001 384.308 255.001 381.769 z" stroke-linecap="round" />
</g>
<g transform="matrix(1 0 0 1 246.16 422.21)" id="NjHXym5yDd3wWDxL2Nz4y"  >
<path style="stroke: none; stroke-width: 1; stroke-dasharray: none; stroke-linecap: butt; stroke-dashoffset: 0; stroke-linejoin: miter; stroke-miterlimit: 4; fill: rgb(0,0,0); fill-rule: nonzero; opacity: 1;" vector-effect="non-scaling-stroke"  transform=" translate(-270.81, -386.41)" d="M 278.986 395.726 L 278.986 399.963 L 262.64099999999996 399.963 L 262.64099999999996 372.857 L 266.895 372.857 L 266.895 395.726 L 278.986 395.726 z" stroke-linecap="round" />
</g>
<g transform="matrix(1 0 0 1 268.6 421.93)" id="Dwl4VQxTGytvfh1LRJMFg"  >
<path style="stroke: none; stroke-width: 1; stroke-dasharray: none; stroke-linecap: butt; stroke-dashoffset: 0; stroke-linejoin: miter; stroke-miterlimit: 4; fill: rgb(0,0,0); fill-rule: nonzero; opacity: 1;" vector-effect="non-scaling-stroke"  transform=" translate(-293.26, -386.13)" d="M 299.673 395.843 L 286.843 395.843 L 284.993 399.963 L 280.38599999999997 399.963 L 293.13199999999995 372.302 L 293.38399999999996 372.302 L 306.12999999999994 399.963 L 301.5229999999999 399.963 L 299.673 395.843 z M 298.025 392.194 L 293.26599999999996 381.6 L 288.48999999999995 392.194 L 298.025 392.194 z" stroke-linecap="round" />
</g>
<g transform="matrix(1 0 0 1 292.38 422.19)" id="x5hxjOipIDIqFXQJLjopO"  >
<path style="stroke: none; stroke-width: 1; stroke-dasharray: none; stroke-linecap: butt; stroke-dashoffset: 0; stroke-linejoin: miter; stroke-miterlimit: 4; fill: rgb(0,0,0); fill-rule: nonzero; opacity: 1;" vector-effect="non-scaling-stroke"  transform=" translate(-317.03, -386.39)" d="M 305.329 386.427 C 305.329 378.793 311.702 372.386 319.319 372.386 C 322.834 372.437 326.079 373.93300000000005 328.736 376.523 L 326.263 379.87 C 324.364 377.97 321.892 376.708 319.23499999999996 376.708 C 314.32499999999993 376.708 309.633 381.01300000000003 309.633 386.444 C 309.633 391.909 314.392 396.13 319.251 396.13 C 322.025 396.13 324.41299999999995 394.751 326.28 392.901 L 328.73499999999996 396.332 C 326.39699999999993 398.63599999999997 323.42099999999994 400.401 319.38499999999993 400.401 C 311.702 400.4 305.329 394.077 305.329 386.427 z" stroke-linecap="round" />
</g>
<g transform="matrix(1 0 0 1 315.54 422.21)" id="LNlkGUMoyfQDqyfTvRRrR"  >
<path style="stroke: none; stroke-width: 1; stroke-dasharray: none; stroke-linecap: butt; stroke-dashoffset: 0; stroke-linejoin: miter; stroke-miterlimit: 4; fill: rgb(0,0,0); fill-rule: nonzero; opacity: 1;" vector-effect="non-scaling-stroke"  transform=" translate(-340.19, -386.41)" d="M 336.376 377.044 L 336.376 383.988 L 346.63399999999996 383.988 L 346.63399999999996 388.225 L 336.376 388.225 L 336.376 395.725 L 348.265 395.725 L 348.265 399.96200000000005 L 332.12199999999996 399.96200000000005 L 332.12199999999996 372.85600000000005 L 348.265 372.85600000000005 L 348.265 377.04400000000004 L 336.376 377.04400000000004 z" stroke-linecap="round" />
</g>
<g transform="matrix(1 0 0 1 191.69 364.55)" id="XFiAhkIJeN6-xKVbZA3nK"  >
<path style="stroke: none; stroke-width: 1; stroke-dasharray: none; stroke-linecap: butt; stroke-dashoffset: 0; stroke-linejoin: miter; stroke-miterlimit: 4; fill: rgb(0,0,0); fill-rule: nonzero; opacity: 1;" vector-effect="non-scaling-stroke"  transform=" translate(-216.34, -328.75)" d="M 235.657 331.817 L 196.875 331.817 L 196.875 325.719 L 235.813 325.688 z" stroke-linecap="round" />
</g>
<g transform="matrix(1 0 0 1 233.7 98.75)" id="htBgTiDVw0JzItpwQ2Oan"  >
<path style="stroke: rgb(0,0,0); stroke-width: 1; stroke-dasharray: none; stroke-linecap: butt; stroke-dashoffset: 0; stroke-linejoin: miter; stroke-miterlimit: 10; fill: none; fill-rule: nonzero; opacity: 1; visibility: hidden;" vector-effect="non-scaling-stroke"  transform=" translate(-258.36, -62.95)" d="M 258.359 62.949" stroke-linecap="round" />
</g>
<g transform="matrix(1 0 0 1 151.91 212.78)" id="2IcgQ0AQf72HiJw-g0mFj"  >
<path style="stroke: none; stroke-width: 1; stroke-dasharray: none; stroke-linecap: butt; stroke-dashoffset: 0; stroke-linejoin: miter; stroke-miterlimit: 4; fill: rgb(255,215,179); fill-rule: nonzero; opacity: 1; visibility: hidden;" vector-effect="non-scaling-stroke"  transform=" translate(-176.56, -176.98)" d="M 256.567 211.087 C 259.882 254.295 200.78900000000002 254.168 157.377 253.49099999999999 C 73.69200000000001 252.178 95.894 189.58299999999997 110.281 149.02599999999998 C 124.664 108.46899999999998 169.073 89.48599999999999 209.46800000000002 106.62399999999998 C 249.864 123.762 249.864 123.762 256.567 211.087 z" stroke-linecap="round" />
</g>
<g transform="matrix(1 0 0 1 136.72 190.85)" id="92nxEJHGCqo08w2BenFn8"  >
<path style="stroke: none; stroke-width: 1; stroke-dasharray: none; stroke-linecap: butt; stroke-dashoffset: 0; stroke-linejoin: miter; stroke-miterlimit: 4; fill: rgb(0,0,0); fill-rule: nonzero; opacity: 1; visibility: hidden;" vector-effect="non-scaling-stroke"  transform=" translate(-161.38, -155.05)" d="M 57.666 247.6 C 57.666 247.6 79.782 238.898 93.062 179.262 C 106.343 119.625 96.497 116.161 96.497 116.161 C 96.497 116.161 73.512 107.671 69.559 128.573 C 65.605 149.476 62.288 73.58800000000001 97.697 84.36500000000001 C 97.697 84.36500000000001 111.90700000000001 49.14400000000001 127.325 54.05000000000001 C 127.325 54.05000000000001 119.099 58.54300000000001 121.73 82.56400000000001 C 121.73 82.56400000000001 213.857 113.012 256.156 79.10900000000001 C 277.082 139.876 269.619 166.16500000000002 141.2 175.09 C 141.2 175.09 139.73 218.14600000000002 111.93199999999999 256.522 L 57.666 247.6 z" stroke-linecap="round" />
</g>
<g transform="matrix(1 0 0 1 266.06 364.59)" id="l-9msOlIDsr2ibtISHeKG"  >
<line style="stroke: rgb(0,0,0); stroke-width: 7; stroke-dasharray: none; stroke-linecap: butt; stroke-dashoffset: 0; stroke-linejoin: miter; stroke-miterlimit: 10; fill: none; fill-rule: nonzero; opacity: 1; visibility: hidden;" vector-effect="non-scaling-stroke"  x1="0" y1="0" x2="0" y2="0" />
</g>
<g transform="matrix(1 0 0 1 259.45 370.48)" id="u7Nb1LZ2d-IEj85x6e9y2"  >
<path style="stroke: rgb(1,0,2); stroke-width: 1; stroke-dasharray: none; stroke-linecap: butt; stroke-dashoffset: 0; stroke-linejoin: miter; stroke-miterlimit: 10; fill: none; fill-rule: nonzero; opacity: 1; visibility: hidden;" vector-effect="non-scaling-stroke"  transform=" translate(-284.1, -334.68)" d="M 284.101 334.676" stroke-linecap="round" />
</g>
<g transform="matrix(1 0 0 1 168.04 221.16)" id="J-FleMiAMYpCdj7CCCfrz"  >
<polyline style="stroke: rgb(0,33,83); stroke-width: 2; stroke-dasharray: none; stroke-linecap: butt; stroke-dashoffset: 0; stroke-linejoin: miter; stroke-miterlimit: 10; fill: none; fill-rule: nonzero; opacity: 1; visibility: hidden;" vector-effect="non-scaling-stroke"  points="-7.81,1.43 -0.53,-1.41 7.81,-1.43 " />
</g>
<g transform="matrix(1 0 0 1 154.08 271.59)" id="7yjespuLUSFizebsgXUpP"  >
<path style="stroke: none; stroke-width: 1; stroke-dasharray: none; stroke-linecap: butt; stroke-dashoffset: 0; stroke-linejoin: miter; stroke-miterlimit: 4; fill: rgb(255,97,97); fill-rule: nonzero; opacity: 1; visibility: hidden;" vector-effect="non-scaling-stroke"  transform=" translate(-178.74, -235.79)" d="M 198.569 227.242 C 198.07799999999997 235.16 192.036 241.718 183.933 243.71699999999998 C 182.278 244.12099999999998 180.53799999999998 244.343 178.736 244.343 C 171.67499999999998 244.343 165.45999999999998 240.97199999999998 161.94299999999998 235.885 C 160.19 233.35999999999999 159.09799999999998 230.40599999999998 158.903 227.243 L 198.569 227.243 z" stroke-linecap="round" />
</g>
<g transform="matrix(1 0 0 1 148.28 274.23)" id="Q6P0aY6TDrNvMAcKk3MYP"  >
<path style="stroke: none; stroke-width: 1; stroke-dasharray: none; stroke-linecap: butt; stroke-dashoffset: 0; stroke-linejoin: miter; stroke-miterlimit: 4; fill: rgb(255,0,0); fill-rule: nonzero; opacity: 1; visibility: hidden;" vector-effect="non-scaling-stroke"  transform=" translate(-172.94, -238.43)" d="M 183.933 243.717 C 182.278 244.121 180.53799999999998 244.34300000000002 178.736 244.34300000000002 C 171.67499999999998 244.34300000000002 165.45999999999998 240.972 161.94299999999998 235.88500000000002 C 164.296 233.776 167.385 232.514 170.76799999999997 232.514 C 177.375 232.513 182.867 237.355 183.933 243.717 z" stroke-linecap="round" />
</g>
</svg>