<?xml version="1.0" encoding="UTF-8" standalone="no"?>
<!-- Created with Inkscape (http://www.inkscape.org/) -->

<svg
   width="443"
   height="275"
   viewBox="0 0 443 275"
   version="1.1"
   id="svg5"
   inkscape:version="1.1.1 (3bf5ae0d25, 2021-09-20)"
   sodipodi:docname="logo-gadget.svg"
   xmlns:inkscape="http://www.inkscape.org/namespaces/inkscape"
   xmlns:sodipodi="http://sodipodi.sourceforge.net/DTD/sodipodi-0.dtd"
   xmlns="http://www.w3.org/2000/svg"
   xmlns:svg="http://www.w3.org/2000/svg">
  <sodipodi:namedview
     id="namedview7"
     pagecolor="#505050"
     bordercolor="#eeeeee"
     borderopacity="1"
     inkscape:pageshadow="0"
     inkscape:pageopacity="0"
     inkscape:pagecheckerboard="0"
     inkscape:document-units="px"
     showgrid="false"
     showguides="true"
     inkscape:guide-bbox="true"
     inkscape:snap-grids="false"
     inkscape:snap-to-guides="false"
     inkscape:lockguides="false"
     inkscape:zoom="1.4142136"
     inkscape:cx="269.76123"
     inkscape:cy="249.96224"
     inkscape:window-width="1920"
     inkscape:window-height="1017"
     inkscape:window-x="-8"
     inkscape:window-y="-8"
     inkscape:window-maximized="1"
     inkscape:current-layer="layer1">
    <sodipodi:guide
       position="355.3543,306.54129"
       orientation="0,-1"
       id="guide1420"
       inkscape:locked="false" />
    <sodipodi:guide
       position="354.48147,304.44206"
       orientation="1,0"
       id="guide11400"
       inkscape:locked="false" />
    <sodipodi:guide
       position="462.5,283.625"
       orientation="1,0"
       id="guide11440"
       inkscape:locked="false" />
    <sodipodi:guide
       position="408.25,265.125"
       orientation="1,0"
       id="guide13936"
       inkscape:locked="false" />
    <sodipodi:guide
       position="162.28101,388.96342"
       orientation="1,0"
       id="guide15738"
       inkscape:locked="false" />
    <sodipodi:guide
       position="344.49359,194.50905"
       orientation="1,0"
       id="guide43108" />
    <sodipodi:guide
       position="40,241.75"
       orientation="1,0"
       id="guide43110" />
    <sodipodi:guide
       position="245.15625,127.0625"
       orientation="0,-1"
       id="guide43141" />
    <sodipodi:guide
       position="472,462.9375"
       orientation="1,0"
       id="guide43143" />
    <sodipodi:guide
       position="429.8125,79.374999"
       orientation="0,-1"
       id="guide43203" />
    <sodipodi:guide
       position="271.21484,130.46875"
       orientation="1,0"
       id="guide43205" />
    <sodipodi:guide
       position="307.5625,114.875"
       orientation="0,-1"
       id="guide43207" />
    <sodipodi:guide
       position="313.62396,100.46387"
       orientation="0,15.578461"
       id="guide44313" />
    <sodipodi:guide
       position="329.20242,114.84906"
       orientation="0,-15.578461"
       id="guide44317" />
    <sodipodi:guide
       position="447.15665,124.59387"
       orientation="1,0"
       id="guide3237" />
  </sodipodi:namedview>
  <defs
     id="defs2" />
  <g
     inkscape:label="Capa 1"
     inkscape:groupmode="layer"
     id="layer1">
    <rect
       style="display:none;fill:#ffffff;fill-opacity:1;stroke:none;stroke-width:0.999059;stroke-opacity:0.0524193"
       id="rect43231"
       width="512.03125"
       height="512"
       x="-0.031250004"
       y="1.582908e-09"
       ry="0" />
    <rect
       style="fill:#b3b3b3;fill-opacity:1;stroke:none;stroke-width:0.222247;stroke-opacity:0.0524193"
       id="rect4293"
       width="26.532831"
       height="6.5648255"
       x="168.62979"
       y="32.251549"
       transform="matrix(0.84590283,0.53333704,0.53333704,-0.84590283,0,0)" />
    <path
       id="rect846"
       style="display:inline;fill:#1a1a1a;stroke-width:0.271383;stroke-opacity:0"
       d="m 70.623436,148.15807 c -3.238224,0 -5.844794,2.60711 -5.844794,5.84533 v 6.70928 l -7.043753,0.0355 c -3.238172,0.0162 -5.831835,2.63576 -5.815633,5.87393 0.0162,3.23819 2.636295,5.83237 5.874468,5.81616 l 6.984918,-0.035 v 7.31885 c 0,3.23821 2.60657,5.84531 5.844794,5.84531 3.238214,0 5.845314,-2.6071 5.845314,-5.84531 v -7.37716 l 7.04321,-0.0355 c 3.23817,-0.0162 5.83184,-2.6363 5.81563,-5.87448 -0.0162,-3.23817 -2.63576,-5.83183 -5.87394,-5.81563 l -6.9849,0.035 v -6.65098 c 0,-3.23822 -2.6071,-5.84533 -5.845314,-5.84533 z" />
    <circle
       style="fill:#3599ff;fill-opacity:1;stroke-width:0.460524;stroke-opacity:0"
       id="path1152"
       cx="130.56287"
       cy="171.25552"
       r="10.344069" />
    <circle
       style="fill:#d40000;stroke-width:0.460524;stroke-opacity:0"
       id="path1152-7"
       cx="106.89903"
       cy="154.6767"
       r="10.344069" />
    <path
       id="path1278"
       style="fill:#000000;stroke-width:1.12553;stroke-opacity:0"
       d="M 94.28806,38.482594 A 89.695841,89.695841 0 0 0 4.5920668,128.17858 89.695841,89.695841 0 0 0 94.28806,217.87456 a 89.695841,89.695841 0 0 0 89.69598,-89.69598 89.695841,89.695841 0 0 0 -0.17809,-5.35719 l -17.79403,0.008 a 71.841695,71.841695 0 0 1 0.001,0.0359 H 85.85646 v 16.43673 h 79.57256 A 71.841695,71.841695 0 0 1 94.42921,200.44554 71.841695,71.841695 0 0 1 22.587499,128.60385 71.841695,71.841695 0 0 1 94.42921,56.762154 a 71.841695,71.841695 0 0 1 42.37986,13.86067 l 12.73907,-13.06195 A 89.695841,89.695841 0 0 0 94.28801,38.482144 Z" />
    <rect
       style="fill:#b3b3b3;fill-opacity:1;stroke:none;stroke-width:0.222247;stroke-opacity:0.0524193"
       id="rect4293-9"
       width="26.532831"
       height="6.5648255"
       x="168.55655"
       y="5.4589691"
       transform="matrix(0.84590283,0.53333704,0.53333704,-0.84590283,0,0)" />
    <path
       id="path4223"
       style="fill:#333333;fill-opacity:1;stroke:none;stroke-width:0.222247;stroke-opacity:0.0524193"
       d="m 172.07972,48.379554 a 30.088779,28.584341 32.231204 0 0 -40.69728,8.13208 30.088779,28.584341 32.231204 0 0 10.20712,40.22702 z" />
    <g
       aria-label="ADGET"
       id="text6250"
       style="font-size:74.5605px;display:inline;stroke-width:1.864"
       transform="translate(-35.355338,-166.87719)">
      <path
         d="m 254.72305,384.91861 h 9.97538 l -27.59612,-59.88868 h -0.5461 l -27.59612,59.88868 h 9.97538 l 4.00472,-8.91959 h 27.77815 z m -28.21503,-16.8198 10.33945,-22.93609 10.30303,22.93609 z"
         style="-inkscape-font-specification:'LEMON MILK'"
         id="path4929" />
      <path
         d="M 287.92578,326.23134 H 271.2152 v 58.68727 h 16.71058 c 18.64012,0 30.25379,-11.24961 30.25379,-29.27082 0,-18.16684 -11.61367,-29.45286 -30.25379,-29.41645 z m 0.0728,49.51283 h -7.60896 v -40.3748 h 7.49974 c 12.8879,0 20.97014,7.79099 20.97014,20.24201 0,12.37821 -8.04583,20.13279 -20.86092,20.13279 z"
         style="-inkscape-font-specification:'LEMON MILK'"
         id="path4931" />
      <path
         d="m 382.10938,352.88089 h -27.77815 v 8.44631 h 18.16684 v 0.18203 c 0,8.956 -7.57255,15.1087 -17.65715,15.1087 -12.52383,0 -21.66186,-9.46569 -21.66186,-20.97014 0,-12.15977 10.121,-21.11577 20.82451,-21.11577 5.57019,0 11.7593,2.83971 16.34652,7.35411 l 5.13331,-7.64536 c -5.53379,-5.38816 -13.98009,-8.956 -21.37061,-8.99241 -16.67417,0 -30.2902,13.72525 -30.2902,30.39943 0,16.63777 13.54321,30.25379 30.61786,30.25379 15.25432,0 27.92378,-10.99476 27.92378,-28.43347 0,-1.63829 -0.10922,-3.24018 -0.25485,-4.58722 z"
         style="-inkscape-font-specification:'LEMON MILK'"
         id="path4933" />
      <path
         d="m 425.79718,335.29656 v -9.06522 h -34.95024 v 58.68727 h 34.95024 v -9.17444 h -25.7394 v -16.23729 h 22.20797 v -9.17444 h -22.20797 v -15.03588 z"
         style="-inkscape-font-specification:'LEMON MILK'"
         id="path4935" />
      <path
         d="m 472.14263,326.23134 h -40.70246 v 9.13803 h 15.72761 v 49.54924 h 9.24725 v -49.54924 h 15.7276 z"
         style="-inkscape-font-specification:'LEMON MILK'"
         id="path4937" />
    </g>
    <path
       style="display:inline;fill:#26b05c;fill-opacity:1;stroke:none;stroke-width:0.785068px;stroke-linecap:butt;stroke-linejoin:miter;stroke-opacity:1"
       d="m 353.82281,26.245404 -30.86557,-0.0424 0.004,9.75317 -3.8359,2.63346 -9.9531,110.059666 h 127.51644 l -9.54014,-110.056526 -3.86091,-2.73416 -0.0909,-9.62035 z"
       id="path1816"
       sodipodi:nodetypes="cccccccccc" />
    <circle
       style="fill:#10333e;fill-opacity:1;stroke:none;stroke-width:0.785068;stroke-opacity:0"
       id="path6319-3"
       cx="407.96823"
       cy="55.246647"
       r="2.7599938" />
    <path
       style="display:inline;fill:#0d3513;fill-opacity:1;stroke:none;stroke-width:0.785068px;stroke-linecap:butt;stroke-linejoin:miter;stroke-opacity:1"
       d="m 323.0816,26.250854 6.08823,4.36999 -10.04491,7.96881 c 34.13011,-0.10825 108.02355,0.003 108.02355,0.003 l -10.13403,-8.00716 6.18229,-4.34741 -6.06853,7.6e-4 z"
       id="path4043"
       sodipodi:nodetypes="cccccccc" />
    <circle
       style="fill:#10333e;fill-opacity:1;stroke:none;stroke-width:0.785068;stroke-opacity:0"
       id="path6319"
       cx="339.81403"
       cy="55.252796"
       r="2.7599938" />
    <path
       id="path5893"
       style="display:inline;fill:#280b0b;fill-opacity:1;stroke:none;stroke-width:1.03872;stroke-opacity:0"
       d="m 373.94874,4.5098441 c -19.35594,1.9e-4 -35.04676,17.1702199 -35.04603,38.3499399 0.0235,4.13702 -0.25618,9.99426 0.96592,13.90927 -0.39118,-2.19219 0.31538,-6.17042 0.29272,-8.40387 -7.9e-4,-20.35058 15.07577,-36.8485 33.674,-36.84863 18.59822,1.3e-4 33.67478,16.49805 33.674,36.84863 -0.0279,2.78157 0.79976,5.30051 0.2023,8.00433 1.57439,-4.38462 1.25353,-8.79893 1.28313,-13.50973 7.2e-4,-21.17972 -15.6901,-38.3497499 -35.04604,-38.3499399 z"
       sodipodi:nodetypes="ccccccccc" />
    <g
       aria-label="PLACE"
       id="text12902"
       style="font-size:53.2199px;stroke-width:1.07877"
       transform="translate(-35.355338,-166.87719)">
      <path
         d="m 305.83024,432.4899 h 6.57453 v -14.52633 h 7.43208 c 8.10771,0 14.73422,-6.08079 14.73422,-13.53885 0,-7.61398 -6.62651,-13.8247 -14.73422,-13.8247 h -14.00661 z m 14.00661,-21.0229 -7.43208,-0.026 v -14.31844 h 7.43208 c 4.49562,0 8.15969,3.24829 8.15969,7.25018 0,3.92392 -3.66407,7.12024 -8.15969,7.09425 z"
         style="-inkscape-font-specification:'LEMON MILK'"
         id="path7524" />
      <path
         d="m 346.36884,425.94136 v -35.34134 h -6.57453 v 41.88988 h 25.25866 v -6.54854 z"
         style="-inkscape-font-specification:'LEMON MILK'"
         id="path7526" />
      <path
         d="m 399.87458,432.4899 h 7.12024 l -19.6976,-42.74743 h -0.38979 l -19.6976,42.74743 h 7.12024 l 2.85849,-6.36664 h 19.82753 z m -20.13936,-12.00566 7.3801,-16.37136 7.35411,16.37136 z"
         style="-inkscape-font-specification:'LEMON MILK'"
         id="path7528" />
      <path
         d="m 427.47201,433.16554 c 6.23671,0 10.83628,-2.72856 14.44837,-6.28868 l -3.794,-5.3012 c -2.88447,2.85849 -6.57453,4.98937 -10.86226,4.98937 -7.51004,0 -14.86415,-6.52256 -14.86415,-14.9681 0,-8.39357 7.25017,-15.04605 14.83816,-15.04605 4.10583,0 7.92582,1.94897 10.86227,4.88542 l 3.81998,-5.17127 c -4.10583,-4.00189 -9.12118,-6.31467 -14.55232,-6.39263 -11.77178,0 -21.62058,9.90077 -21.62058,21.69854 0,11.82376 9.8488,21.5946 21.72453,21.5946 z"
         style="-inkscape-font-specification:'LEMON MILK'"
         id="path7530" />
      <path
         d="m 472.09045,397.0706 v -6.47058 h -24.94682 v 41.88988 h 24.94682 v -6.54854 h -18.3723 v -11.58988 h 15.85163 v -6.54855 H 453.71815 V 397.0706 Z"
         style="-inkscape-font-specification:'LEMON MILK'"
         id="path7532" />
    </g>
    <path
       id="path15616"
       style="display:inline;fill:#176937;fill-opacity:1;stroke-width:0.291397;stroke-opacity:0.0524193"
       d="m 244.58335,222.70563 a 16.172513,16.172513 0 0 0 -16.1725,16.1725 16.172513,16.172513 0 0 0 4.64414,11.28479 l 11.45894,19.62091 11.64391,-19.667 a 16.172513,16.172513 0 0 0 4.59803,-11.2387 16.172513,16.172513 0 0 0 -16.17252,-16.1725 z" />
    <circle
       style="display:inline;fill:#ffffff;fill-opacity:1;stroke-width:0.291397;stroke-opacity:0.0524193"
       id="path15618"
       cx="244.51955"
       cy="238.83398"
       r="8.6540365" />
  </g>
</svg>
