<?xml version="1.0" encoding="utf-8"?>
<!-- Generator: Adobe Illustrator 16.0.0, SVG Export Plug-In . SVG Version: 6.00 Build 0)  -->
<!DOCTYPE svg PUBLIC "-//W3C//DTD SVG 1.1//EN" "http://www.w3.org/Graphics/SVG/1.1/DTD/svg11.dtd">
<svg version="1.1" xmlns="http://www.w3.org/2000/svg" xmlns:xlink="http://www.w3.org/1999/xlink" x="0px" y="0px" width="512px"
	 height="512px" viewBox="0 0 512 512" enable-background="new 0 0 512 512" xml:space="preserve">
<g id="svg5" xmlns:inkscape="http://www.inkscape.org/namespaces/inkscape" xmlns:sodipodi="http://sodipodi.sourceforge.net/DTD/sodipodi-0.dtd" xmlns:svg="http://www.w3.org/2000/svg" sodipodi:docname="Logo.svg" inkscape:version="1.1.1 (3bf5ae0d25, 2021-09-20)">
	
		<sodipodi:namedview  inkscape:cy="255.79588" inkscape:cx="306.00046" inkscape:zoom="2.8284271" showguides="true" showgrid="false" borderopacity="1" bordercolor="#eeeeee" pagecolor="#505050" id="namedview7" inkscape:current-layer="layer1" inkscape:window-maximized="1" inkscape:window-y="-8" inkscape:window-x="-8" inkscape:window-height="1017" inkscape:snap-grids="false" inkscape:snap-others="false" inkscape:window-width="1920" inkscape:document-units="px" inkscape:pagecheckerboard="0" inkscape:pageopacity="0" inkscape:pageshadow="0" inkscape:lockguides="false" inkscape:guide-bbox="true" inkscape:snap-to-guides="false">
		<sodipodi:guide  inkscape:locked="false" orientation="0,-1" position="325.87021,137.02142" id="guide15273"></sodipodi:guide>
		<sodipodi:guide  inkscape:locked="false" orientation="1,0" position="162.40729,305.75101" id="guide15393"></sodipodi:guide>
		<sodipodi:guide  inkscape:locked="false" orientation="1,0" position="312.6823,317.8833" id="guide15395"></sodipodi:guide>
		<sodipodi:guide  inkscape:locked="false" orientation="0,-1" position="178.39986,277.21254" id="guide15415"></sodipodi:guide>
		<sodipodi:guide  inkscape:locked="false" orientation="1,0" position="175.09106,321.19211" id="guide16130"></sodipodi:guide>
		<sodipodi:guide  orientation="1,0" position="324.81459,321.46784" id="guide16186"></sodipodi:guide>
		<sodipodi:guide  orientation="1,0" position="179.9604,298.30922" id="guide16439"></sodipodi:guide>
		<sodipodi:guide  orientation="1,0" position="307.66794,367.9147" id="guide16893"></sodipodi:guide>
		<sodipodi:guide  orientation="0,-1" position="222.65956,280.56664" id="guide17009"></sodipodi:guide>
		<sodipodi:guide  orientation="0,-1" position="307.76542,292.99619" id="guide17087"></sodipodi:guide>
		<sodipodi:guide  orientation="0,-1" position="281.93145,287.39071" id="guide17375"></sodipodi:guide>
		<sodipodi:guide  orientation="1,0" position="187.56436,378.24829" id="guide17591"></sodipodi:guide>
		<sodipodi:guide  orientation="1,0" position="299.869,369.66946" id="guide17593"></sodipodi:guide>
		<sodipodi:guide  orientation="1,0" position="242.5,350.75" id="guide18169"></sodipodi:guide>
		<sodipodi:guide  orientation="1,0" position="201.375,255.875" id="guide18327"></sodipodi:guide>
		<sodipodi:guide  orientation="0,-1" position="201.375,255.875" id="guide18329"></sodipodi:guide>
		<sodipodi:guide  orientation="1,0" position="288.25,279" id="guide18331"></sodipodi:guide>
	</sodipodi:namedview>
	<g id="layer1" inkscape:groupmode="layer" inkscape:label="Capa 1">
		<path id="path5893_1_" sodipodi:nodetypes="ccccccccc" display="none" opacity="0.5" fill="#353131" d="M318.484,93.344
			c-38.361-13.703-79.019,1.948-90.809,34.958c-2.257,6.463-6.071,15.394-5.828,22.361c0.443-3.694,4.06-9.394,5.258-12.891
			c11.328-31.716,50.394-46.757,87.253-33.59c36.859,13.167,57.551,49.552,46.223,81.268c-1.605,4.315-1.367,8.827-4.053,12.621
			c5.559-5.72,7.379-12.827,10.061-20.149C378.383,144.915,356.844,107.047,318.484,93.344L318.484,93.344z"/>
		
			<image display="none" overflow="visible" enable-background="new    " width="256" height="256" id="image1779" xlink:href="79E4501C.png"  transform="matrix(2.0012 0.7148 -0.6959 1.9482 107.5771 -126.665)">
		</image>
		<path id="path1816" sodipodi:nodetypes="cccccccccc" fill="#79C4DC" d="M256.144,135.068l-65.988-23.671l-7.246,20.313
			l-10.165,2.552L69.589,355.843l272.753,97.43l61.457-236.469l-6.225-8.643l6.961-20.102L256.144,135.068z"/>
		
			<ellipse id="path6319-3" transform="matrix(0.3365 -0.9417 0.9417 0.3365 9.3672 487.0469)" fill="#10333E" cx="350.292" cy="236.876" rx="6.104" ry="6.269"/>
		<path id="path4043" sodipodi:nodetypes="cccccccc" fill="#297F9B" d="M190.292,111.638l9.772,13.75l-27.413,8.92
			c73.081,25.852,231.054,82.542,231.054,82.542l-15.721-24.416l16.457-4.329l-12.979-4.636L190.292,111.638z"/>
		
			<ellipse id="path6319" transform="matrix(0.3364 -0.9417 0.9417 0.3364 -38.3344 315.2305)" fill="#10333E" cx="204.509" cy="184.816" rx="6.103" ry="6.269"/>
		<path id="path5893" sodipodi:nodetypes="ccccccccc" fill="#280B0B" d="M311.918,114.602
			c-41.402-14.79-86.635,5.897-101.031,46.205c-2.763,7.891-7.341,18.824-7.389,27.208c0.652-4.472,4.87-11.502,6.338-15.771
			c13.832-38.728,57.296-58.607,97.079-44.397c39.779,14.21,60.809,57.126,46.973,95.854c-1.949,5.272-1.893,10.697-5.004,15.39
			c6.344-7.143,8.658-15.788,11.926-24.732C375.211,174.055,353.32,129.392,311.918,114.602L311.918,114.602z"/>
	</g>
	<g>
		<path fill="#474747" d="M197.703,340.84h-2.495v-2.5c0-1.375-1.119-2.493-2.497-2.493c-1.378,0-2.495,1.118-2.495,2.493v2.5
			h-2.496c-1.378,0-2.495,1.116-2.495,2.497c0,1.373,1.117,2.493,2.495,2.493h2.496v2.496c0,1.381,1.117,2.497,2.495,2.497
			c1.378,0,2.497-1.116,2.497-2.497v-2.496h2.495c1.379,0,2.496-1.12,2.496-2.493C200.199,341.956,199.082,340.84,197.703,340.84z"
			/>
		<circle fill="#FF4343" cx="215.592" cy="339.59" r="2.496"/>
		<path fill="#317BFF" d="M210.601,344.582c1.377,0,2.492,1.12,2.492,2.495c0,1.378-1.115,2.497-2.492,2.497
			c-1.382,0-2.499-1.119-2.499-2.497C208.102,345.702,209.219,344.582,210.601,344.582z"/>
		<path fill="none" stroke="#040105" stroke-width="6" stroke-miterlimit="10" d="M193.75,328.75"/>
		<path fill="none" stroke="#040105" stroke-width="6" stroke-miterlimit="10" d="M235.359,323.106"/>
		<path fill="none" stroke="#000000" stroke-width="7" stroke-miterlimit="10" d="M232.285,326.032
			c0.083,0.832,0.115,1.683,0.115,2.535c0,17.518-14.19,31.708-31.709,31.708c-17.504,0-31.706-14.19-31.706-31.708
			c0-17.508,14.202-31.708,31.706-31.708c7.682,0,14.722,2.734,20.201,7.277"/>
		<path fill="#686868" d="M229.065,295.476l-7.793,18.819c-0.817-0.158-1.603-0.389-2.33-0.688
			c-5.322-2.208-7.852-8.314-5.647-13.639c2.205-5.326,8.313-7.857,13.637-5.649C227.656,294.617,228.378,295.009,229.065,295.476z"
			/>
		<polygon points="234.48,305.568 226.163,302.125 227.336,299.285 235.657,302.734 		"/>
		<rect x="222.831" y="309.529" transform="matrix(0.9239 0.3827 -0.3827 0.9239 136.348 -63.3194)" width="9.005" height="3.07"/>
	</g>
	<g>
		<path d="M257.726,354.508h-12.83l-1.85,4.12h-4.607l12.746-27.661h0.252l12.746,27.661h-4.607L257.726,354.508z M256.078,350.859
			l-4.759-10.594l-4.775,10.594H256.078z"/>
		<path d="M288.891,345.108c0,8.323-5.364,13.52-13.974,13.52h-7.718v-27.106h7.718
			C283.526,331.505,288.891,336.718,288.891,345.108z M284.586,345.092c0-5.751-3.732-9.35-9.686-9.35h-3.464v18.648h3.515
			C280.87,354.391,284.586,350.809,284.586,345.092z"/>
		<path d="M318.542,345.949c0,8.055-5.852,13.133-12.897,13.133c-7.887,0-14.142-6.289-14.142-13.974
			c0-7.701,6.289-14.041,13.99-14.041c3.413,0.018,7.314,1.665,9.87,4.153l-2.37,3.531c-2.119-2.085-4.978-3.396-7.551-3.396
			c-4.943,0-9.618,4.137-9.618,9.753c0,5.313,4.221,9.686,10.005,9.686c4.658,0,8.156-2.842,8.156-6.979v-0.084h-8.392v-3.901h12.83
			C318.491,344.453,318.542,345.192,318.542,345.949z"/>
		<path d="M326.722,335.709v6.944h10.258v4.237h-10.258v7.5h11.889v4.237h-16.143v-27.106h16.143v4.188H326.722z"/>
		<path d="M360.021,335.742h-7.265v22.886h-4.271v-22.886h-7.265v-4.221h18.8V335.742z"/>
		<path d="M240.658,372.856h9.063c5.246,0,9.534,4.02,9.534,8.946c0,4.826-4.288,8.761-9.534,8.761h-4.81v9.399h-4.254V372.856z
			 M255.001,381.769c0-2.589-2.371-4.691-5.28-4.691h-4.81v9.266l4.81,0.017C252.63,386.376,255.001,384.308,255.001,381.769z"/>
		<path d="M278.986,395.726v4.237h-16.345v-27.106h4.254v22.869H278.986z"/>
		<path d="M299.673,395.843h-12.83l-1.85,4.12h-4.607l12.746-27.661h0.252l12.746,27.661h-4.607L299.673,395.843z M298.025,392.194
			l-4.759-10.594l-4.776,10.594H298.025z"/>
		<path d="M305.329,386.427c0-7.634,6.373-14.041,13.99-14.041c3.515,0.051,6.76,1.547,9.417,4.137l-2.473,3.347
			c-1.899-1.9-4.371-3.162-7.028-3.162c-4.91,0-9.602,4.305-9.602,9.736c0,5.465,4.759,9.686,9.618,9.686
			c2.774,0,5.162-1.379,7.029-3.229l2.455,3.431c-2.338,2.304-5.314,4.069-9.35,4.069
			C311.702,400.4,305.329,394.077,305.329,386.427z"/>
		<path d="M336.376,377.044v6.944h10.258v4.237h-10.258v7.5h11.889v4.237h-16.143v-27.106h16.143v4.188H336.376z"/>
	</g>
	<polygon points="235.657,331.817 196.875,331.817 196.875,325.719 235.813,325.688 	"/>
</g>
<g id="Capa_2" display="none">
	<path display="inline" fill="none" stroke="#000000" stroke-miterlimit="10" d="M258.359,62.949"/>
	<path display="inline" fill="#FFD7B3" d="M256.567,211.087c3.315,43.208-55.778,43.081-99.19,42.404
		c-83.685-1.313-61.483-63.908-47.096-104.465c14.383-40.557,58.792-59.54,99.187-42.402
		C249.864,123.762,249.864,123.762,256.567,211.087z"/>
	<path display="inline" d="M57.666,247.6c0,0,22.116-8.702,35.396-68.338c13.281-59.637,3.435-63.101,3.435-63.101
		s-22.985-8.49-26.938,12.412c-3.954,20.903-7.271-54.985,28.138-44.208c0,0,14.21-35.221,29.628-30.315
		c0,0-8.226,4.493-5.595,28.514c0,0,92.127,30.448,134.426-3.455c20.926,60.767,13.463,87.056-114.956,95.981
		c0,0-1.47,43.056-29.268,81.432L57.666,247.6z"/>
	<polygon display="inline" points="177.233,208.776 166.008,209.412 164.224,170.719 175.449,170.082 	"/>
	<polygon display="inline" points="223.623,202.977 212.396,203.619 210.499,162.696 221.721,162.056 	"/>
	<g id="Capa_3" display="inline">
	</g>
	
		<line display="inline" fill="none" stroke="#000000" stroke-width="7" stroke-miterlimit="10" x1="290.718" y1="328.788" x2="290.718" y2="328.788"/>
	<path display="inline" fill="none" stroke="#010002" stroke-miterlimit="10" d="M284.101,334.676"/>
	<polyline display="inline" fill="none" stroke="#002153" stroke-width="2" stroke-miterlimit="10" points="184.883,186.791 
		192.165,183.954 200.505,183.936 	"/>
	
		<rect x="125.556" y="170.317" transform="matrix(0.969 -0.2469 0.2469 0.969 -42.7492 44.3584)" display="inline" opacity="0.4" fill="#CBDEF4" width="59.856" height="44.61"/>
	
		<rect x="200.365" y="160.532" transform="matrix(0.9996 0.0275 -0.0275 0.9996 5.1181 -6.2674)" display="inline" opacity="0.4" fill="#C8DAEE" width="59.856" height="44.611"/>
	
		<rect x="200.365" y="160.553" transform="matrix(0.9996 0.0275 -0.0275 0.9996 5.1171 -6.2656)" display="inline" fill="none" stroke="#002356" stroke-miterlimit="10" width="59.856" height="44.611"/>
	
		<rect x="125.556" y="170.317" transform="matrix(0.969 -0.2469 0.2469 0.969 -42.7492 44.3584)" display="inline" fill="none" stroke="#002356" stroke-miterlimit="10" width="59.856" height="44.61"/>
	<path display="inline" fill="#FF6161" d="M198.569,227.242c-0.491,7.918-6.533,14.476-14.636,16.475
		c-1.655,0.404-3.395,0.626-5.197,0.626c-7.061,0-13.276-3.371-16.793-8.458c-1.753-2.525-2.845-5.479-3.04-8.642H198.569z"/>
	<path display="inline" fill="#FF0000" d="M183.933,243.717c-1.655,0.404-3.395,0.626-5.197,0.626
		c-7.061,0-13.276-3.371-16.793-8.458c2.353-2.109,5.442-3.371,8.825-3.371C177.375,232.513,182.867,237.355,183.933,243.717z"/>
</g>
<g id="Capa_4">
</g>
</svg>
